<svg width="24" height="24" viewBox="0 0 24 24" fill="none" xmlns="http://www.w3.org/2000/svg">
<path d="M23.9999 11.9994C23.9999 11.224 23.331 9.80748 21.862 8.53061C21.0235 7.80931 20.0678 7.23669 19.0363 6.83748C19.002 6.82465 18.9642 6.82503 18.9301 6.83854C18.8961 6.85206 18.8683 6.87774 18.8521 6.91061C18.8451 6.9242 18.8381 6.93733 18.8301 6.95092L18.3806 7.69623C17.6225 9.00527 17.2235 10.4913 17.2241 12.004C17.2247 13.5167 17.6248 15.0025 18.3838 16.3109L18.3946 16.3292L18.8043 17.0792C18.826 17.119 18.8615 17.1496 18.9041 17.1653C18.9467 17.181 18.9935 17.1807 19.0359 17.1645C22.4826 15.8159 23.9999 13.1942 23.9999 11.9994ZM19.5974 11.9928C19.4421 12.0131 19.2843 11.9843 19.1462 11.9103C19.0081 11.8364 18.8966 11.7211 18.8274 11.5806C18.7582 11.44 18.7347 11.2814 18.7602 11.1268C18.7858 10.9722 18.8591 10.8296 18.9698 10.7188C19.0806 10.608 19.2233 10.5347 19.3778 10.5092C19.5324 10.4836 19.6911 10.5071 19.8316 10.5763C19.9721 10.6456 20.0875 10.757 20.1614 10.8952C20.2353 11.0333 20.2642 11.1911 20.2438 11.3464C20.2224 11.5103 20.1474 11.6626 20.0305 11.7795C19.9136 11.8964 19.7614 11.9714 19.5974 11.9928Z" fill="#1B69C6"/>
<path d="M15.724 11.9988C15.7234 10.2206 16.1937 8.47386 17.0871 6.93634L17.0928 6.9265L17.3093 6.56696C17.325 6.54135 17.3342 6.51235 17.3364 6.48241C17.3385 6.45246 17.3334 6.42245 17.3215 6.39489C17.3096 6.36733 17.2912 6.34303 17.268 6.32403C17.2447 6.30503 17.2173 6.29189 17.1879 6.28571C16.5811 6.15875 15.9662 6.07432 15.3476 6.03306C15.2747 6.02835 15.2047 6.00226 15.1465 5.95806C14.2428 5.27087 12.4512 4.069 10.6249 3.76009C10.5001 3.73941 10.3721 3.75063 10.2528 3.79271C10.1336 3.83479 10.0268 3.90636 9.94264 4.00076C9.85843 4.09517 9.79948 4.20933 9.77125 4.33264C9.74302 4.45595 9.74644 4.58439 9.78119 4.70603L10.279 6.44837C10.2919 6.49352 10.2875 6.54189 10.2665 6.5839C10.2455 6.62591 10.2095 6.65851 10.1656 6.67524C8.43822 7.31696 6.95041 8.49165 5.86525 9.38696C5.79884 9.44132 5.71579 9.47126 5.62997 9.47177C5.54415 9.47228 5.46075 9.44334 5.39369 9.38978C5.24619 9.27259 5.09478 9.15712 4.93947 9.04337C3.08135 7.68634 0.898377 7.50775 0.806502 7.50118C0.689852 7.49237 0.572758 7.51097 0.464579 7.55549C0.356399 7.6 0.260133 7.66921 0.183474 7.75758C0.106816 7.84594 0.0518903 7.95101 0.0230879 8.06439C-0.00571443 8.17777 -0.0075952 8.29632 0.017596 8.41056C0.0372835 8.50103 0.448377 10.3179 1.50353 11.7673C1.55103 11.8322 1.57663 11.9106 1.57663 11.9911C1.57663 12.0716 1.55103 12.15 1.50353 12.2149C0.448377 13.6638 0.0372835 15.4812 0.017596 15.5717C-0.0075952 15.6859 -0.00571443 15.8044 0.0230879 15.9178C0.0518903 16.0312 0.106816 16.1363 0.183474 16.2246C0.260133 16.313 0.356399 16.3822 0.464579 16.4267C0.572758 16.4712 0.689852 16.4898 0.806502 16.481C0.900252 16.4745 3.08135 16.2935 4.93713 14.9398C5.08869 14.8285 5.23666 14.7157 5.38103 14.6013C5.44814 14.5478 5.53157 14.519 5.61739 14.5196C5.70322 14.5202 5.78624 14.5502 5.8526 14.6046C6.94244 15.5042 8.43306 16.6802 10.1651 17.3234C10.2089 17.3401 10.2448 17.3726 10.2658 17.4145C10.2868 17.4564 10.2913 17.5047 10.2785 17.5498L9.77885 19.2926C9.7441 19.4142 9.74068 19.5427 9.7689 19.666C9.79713 19.7893 9.85609 19.9035 9.94029 19.9979C10.0245 20.0923 10.1312 20.1638 10.2505 20.2059C10.3698 20.248 10.4978 20.2592 10.6226 20.2385C11.427 20.1026 13.0545 19.6357 15.1249 18.0434C15.1841 17.9982 15.2551 17.9714 15.3293 17.966C15.9471 17.9256 16.5614 17.8426 17.1678 17.7176C17.1964 17.7116 17.2232 17.699 17.2461 17.6807C17.2689 17.6625 17.2872 17.6392 17.2995 17.6126C17.3117 17.5861 17.3176 17.557 17.3166 17.5278C17.3157 17.4986 17.3078 17.47 17.2938 17.4443L17.0824 17.0557C16.1916 15.5194 15.7229 13.7748 15.724 11.9988Z" fill="#1B69C6"/>
</svg>
