<svg width="24" height="24" viewBox="0 0 24 24" fill="none" xmlns="http://www.w3.org/2000/svg">
<path d="M18.9401 5.4175L13.7701 2.4275C12.7801 1.8575 11.2301 1.8575 10.2401 2.4275L5.02008 5.4375C2.95008 6.8375 2.83008 7.0475 2.83008 9.2775V14.7075C2.83008 16.9375 2.95008 17.1575 5.06008 18.5775L10.2301 21.5675C10.7301 21.8575 11.3701 21.9975 12.0001 21.9975C12.6301 21.9975 13.2701 21.8575 13.7601 21.5675L18.9801 18.5575C21.0501 17.1575 21.1701 16.9475 21.1701 14.7175V9.2775C21.1701 7.0475 21.0501 6.8375 18.9401 5.4175ZM12.0001 15.2475C10.2101 15.2475 8.75008 13.7875 8.75008 11.9975C8.75008 10.2075 10.2101 8.7475 12.0001 8.7475C13.7901 8.7475 15.2501 10.2075 15.2501 11.9975C15.2501 13.7875 13.7901 15.2475 12.0001 15.2475Z" fill="#1B69C6"/>
</svg>
